Coordinates
version=1
nRows=12
nColumns=24
inDegrees=yes

Units are S.I. units (second, meters, Newtons, ...)
Angles are in degrees.

endheader
time	pelvis_tilt	pelvis_list	pelvis_rotation	pelvis_tx	pelvis_ty	pelvis_tz	hip_flexion_r	hip_adduction_r	hip_rotation_r	knee_angle_r	ankle_angle_r	subtalar_angle_r	mtp_angle_r	hip_flexion_l	hip_adduction_l	hip_rotation_l	knee_angle_l	ankle_angle_l	subtalar_angle_l	mtp_angle_l	lumbar_extension	lumbar_bending	lumbar_rotation
      4.16000000	     39.70852979	      3.57835231	     -2.15520801	      0.68688449	      1.06847745	     -0.33123094	     34.03134878	    -12.62973091	      9.89838830	    -78.80710999	    -20.96924582	      0.00000000	      0.00000000	     26.97344579	    -13.35739834	     -6.73336618	    -69.32866651	    -13.85526857	      0.00000000	      0.00000000	      0.00000000	      0.00000000	      0.00000000
      4.17000000	     39.71155460	      3.58011790	     -2.14953409	      0.68687780	      1.06851086	     -0.33123623	     34.02129346	    -12.58468746	      9.73082838	    -78.61425305	    -20.98081815	      0.00000000	      0.00000000	     26.96640707	    -13.35233104	     -6.73125365	    -69.32921288	    -13.85321961	      0.00000000	      0.00000000	      0.00000000	      0.00000000	      0.00000000
      4.18000000	     39.71472444	      3.58138357	     -2.14293102	      0.68686344	      1.06854993	     -0.33124275	     34.00794710	    -12.53447203	      9.56362352	    -78.40304615	    -20.99550212	      0.00000000	      0.00000000	     26.95898899	    -13.34787900	     -6.72972874	    -69.33145716	    -13.85085066	      0.00000000	      0.00000000	      0.00000000	      0.00000000	      0.00000000
      4.19000000	     39.71771453	      3.58186290	     -2.13645185	      0.68685219	      1.06859114	     -0.33125880	     33.99218783	    -12.47976610	      9.39642480	    -78.17447461	    -21.01176543	      0.00000000	      0.00000000	     26.95202920	    -13.34440437	     -6.73070268	    -69.33496568	    -13.84797654	      0.00000000	      0.00000000	      0.00000000	      0.00000000	      0.00000000
      4.20000000	     39.72019305	      3.58167362	     -2.13142662	      0.68685208	      1.06862618	     -0.33128607	     33.97561838	    -12.42170564	      9.22774588	    -77.92934087	    -21.02727716	      0.00000000	      0.00000000	     26.94618128	    -13.34186465	     -6.73586819	    -69.33922822	    -13.84437897	      0.00000000	      0.00000000	      0.00000000	      0.00000000	      0.00000000
      4.21000000	     39.72160811	      3.58113876	     -2.12862083	      0.68685803	      1.06865171	     -0.33131492	     33.96026557	    -12.36167041	      9.05660608	    -77.66884453	    -21.04000677	      0.00000000	      0.00000000	     26.94144514	    -13.34014341	     -6.74556505	    -69.34385543	    -13.83995357	      0.00000000	      0.00000000	      0.00000000	      0.00000000	      0.00000000
      4.22000000	     39.72143073	      3.58035451	     -2.12762053	      0.68686265	      1.06867364	     -0.33133278	     33.94795352	    -12.30106524	      8.88390247	    -77.39496411	    -21.04909266	      0.00000000	      0.00000000	     26.93745721	    -13.33925539	     -6.75847080	    -69.34842075	    -13.83479806	      0.00000000	      0.00000000	      0.00000000	      0.00000000	      0.00000000
      4.23000000	     39.71941020	      3.57933906	     -2.12708505	      0.68686579	      1.06869996	     -0.33134186	     33.93951266	    -12.24063268	      8.71202837	    -77.11042244	    -21.05511553	      0.00000000	      0.00000000	     26.93413788	    -13.33906273	     -6.77237605	    -69.35238365	    -13.82920084	      0.00000000	      0.00000000	      0.00000000	      0.00000000	      0.00000000
      4.24000000	     39.71545215	      3.57826265	     -2.12579878	      0.68686947	      1.06873065	     -0.33135507	     33.93426908	    -12.18016742	      8.54324356	    -76.81841690	    -21.05978099	      0.00000000	      0.00000000	     26.93203306	    -13.33892374	     -6.78540935	    -69.35531708	    -13.82357702	      0.00000000	      0.00000000	      0.00000000	      0.00000000	      0.00000000
      4.25000000	     39.70959277	      3.57727987	     -2.12339770	      0.68687091	      1.06876062	     -0.33137631	     33.93062512	    -12.11914501	      8.37849682	    -76.52194598	    -21.06520845	      0.00000000	      0.00000000	     26.93198856	    -13.33790997	     -6.79685403	    -69.35725611	    -13.81840533	      0.00000000	      0.00000000	      0.00000000	      0.00000000	      0.00000000
      4.26000000	     39.70218363	      3.57648852	     -2.12009633	      0.68686570	      1.06879246	     -0.33139967	     33.92747112	    -12.05746832	      8.21752017	    -76.22282268	    -21.07306563	      0.00000000	      0.00000000	     26.93435277	    -13.33554268	     -6.80710317	    -69.35887294	    -13.81418614	      0.00000000	      0.00000000	      0.00000000	      0.00000000	      0.00000000
      4.27000000	     39.69389407	      3.57602821	     -2.11607847	      0.68685672	      1.06883012	     -0.33142071	     33.92499499	    -11.99559823	      8.05979538	    -75.92119438	    -21.08383870	      0.00000000	      0.00000000	     26.93854762	    -13.33219697	     -6.81702955	    -69.36116865	    -13.81138763	      0.00000000	      0.00000000	      0.00000000	      0.00000000	      0.00000000
